<svg viewBox="0 0 1597 1133" xmlns="http://www.w3.org/2000/svg" width="1597" height="1133" xmlns:xlink="http://www.w3.org/1999/xlink" xmlns:ev="http://www.w3.org/2001/xml-events"><style type="text/css"><![CDATA[
.st9 {fill:#000000;font-family:Arial;font-size:5.25pt}
.st4 {fill:#000000;font-family:Arial;font-size:6.75pt}
.st8 {fill:#000000;font-family:Arial;font-size:6pt}
.st3 {fill:#000000;font-family:Arial;font-size:7.5pt}
.st10 {fill:#303030;font-family:Arial;font-size:27pt}
.st5 {fill:#303030;font-family:Arial;font-size:6.75pt}
.st7 {fill:#303030;font-family:Arial;font-size:7.5pt}
.st6 {fill:#303030;font-family:Arial;font-size:8.25pt}
.st1 {fill:#ffffff;font-family:Arial;font-size:7.5pt}
.st2 {text-decoration:underline}
]]></style><defs><linearGradient x1="0%" id="lg1" x2="0%" y1="0%" y2="100%"><stop offset="0" stop-color="#fcfafa"/><stop offset="1" stop-color="#f4e9e9"/></linearGradient><linearGradient x1="0%" id="lg2" x2="0%" y1="0%" y2="100%"><stop offset="0" stop-color="#fbfbfb"/><stop offset="1" stop-color="#efefef"/></linearGradient><linearGradient x1="0%" id="lg3" x2="0%" y1="0%" y2="100%"><stop offset="0" stop-color="#fbfcfa"/><stop offset="1" stop-color="#eff3ea"/></linearGradient><linearGradient x1="0%" id="lg4" x2="0%" y1="0%" y2="100%"><stop offset="0" stop-color="#fafbfc"/><stop offset="1" stop-color="#e9edf4"/></linearGradient></defs><g id="page1" transform="translate(5,5)"><rect fill="#ffffff" x="0" stroke="#808080" y="0" width="1587" height="1123"/><g id="shape1" transform="translate(747.81,339.36)"><path fill="#c0504d" d="M0,0L0,38.6L64.8,38.6L64.8,0L0,0z"/><path fill="none" stroke="#c0504d" d="M0,0L0,38.6L64.8,38.6L64.8,0L0,0zM2.7,2.7L62.1,2.7L62.1,35.9L2.7,35.9L2.7,2.7z"/><text class="st1"><tspan x="18.4" y="22.3">kunde</tspan></text></g><g id="shape2" transform="translate(1252.02,149.65)"><path fill="#4f81bd" d="M0,0L0,39.3L66,39.3L66,0L0,0z"/><path fill="none" stroke="#4f81bd" d="M0,0L0,39.3L66,39.3L66,0L0,0zM2.8,2.8L63.2,2.8L63.2,36.6L2.8,36.6L2.8,2.8z"/><text class="st1"><tspan x="12.5" y="22.7">kuenstler</tspan></text></g><g id="shape3" transform="translate(747.41,753.43)"><path fill="#f79646" stroke="#f79646" d="M0,0L0,38.9L65.2,38.9L65.2,0L0,0z"/><text class="st1"><tspan x="22.1" y="22.4">login</tspan></text></g><g id="shape4" transform="translate(1254.32,567.02)"><path fill="#9bbb59" stroke="#9bbb59" d="M0,0L0,37.1L62.1,37.1L62.1,0L0,0z"/><text class="st1"><tspan x="23.1" y="21.5">bild</tspan></text></g><g id="shape5" transform="translate(226.5,339.12)"><path fill="#8064a2" stroke="#8064a2" d="M0,0L0,38.9L65.2,38.9L65.2,0L0,0z"/><text class="st1"><tspan x="12.1" y="22.4">message</tspan></text></g><g transform="translate(841.81,339.12)"><path fill="#c0504d" stroke="#c0504d" id="shape6" d="M0,0M84.2,19.4C84.2,30.2,65.3,38.9,42.1,38.9C18.8,38.9,-0,30.2,-0,19.4C-0,8.7,18.8,0,42.1,0C65.3,0,84.2,8.7,84.2,19.4z"/><path/><text class="st1"><tspan x="10.1" y="22.4">PS:kunden_ID</tspan></text></g><g transform="translate(1124,906.12)"><path fill="#969696" stroke="#969696" id="shape7" d="M0,0M82.7,19.4C82.7,30.2,64.2,38.9,41.4,38.9C18.5,38.9,0,30.2,0,19.4C0,8.7,18.5,0,41.4,0C64.2,0,82.7,8.7,82.7,19.4z"/><path/><text class="st1"><tspan x="5.4" y="22.4">PS:kategorie_ID</tspan></text></g><g transform="translate(1295.8,93.12)"><path fill="#4f81bd" stroke="#4f81bd" id="shape8" d="M0,0M84.2,19.4C84.2,30.2,65.3,38.9,42.1,38.9C18.8,38.9,0,30.2,0,19.4C0,8.7,18.8,0,42.1,0C65.3,0,84.2,8.7,84.2,19.4z"/><path/><text class="st1"><tspan x="6.1" y="22.4">PS:kuenstler_ID</tspan></text></g><g transform="translate(1361,569.08)"><path fill="#9bbb59" stroke="#9bbb59" id="shape9" d="M0,0M65.2,19.4C65.2,30.2,50.6,38.9,32.6,38.9C14.6,38.9,-0,30.2,-0,19.4C-0,8.7,14.6,0,32.6,0C50.6,0,65.2,8.7,65.2,19.4z"/><path/><text class="st1"><tspan x="9.1" y="22.4">PS:bild_ID</tspan></text></g><g transform="translate(113,339.12)"><path fill="#8064a2" stroke="#8064a2" id="shape10" d="M0,0M94.5,19.4C94.5,30.2,73.3,38.9,47.3,38.9C21.2,38.9,0,30.2,0,19.4C0,8.7,21.2,0,47.3,0C73.3,0,94.5,8.7,94.5,19.4z"/><path/><text class="st1"><tspan x="11.3" y="22.4" class="st2">PS:message_ID</tspan></text></g><g id="shape11" transform="translate(1024.5,150.43)"><path stroke="#000000" stroke-opacity="0.08"/><path fill="none" stroke="#6d6d6d" d="M0,19.4L33.5,0L67,19.4L33.5,38.8L0,19.4z"/><text class="st3"><tspan x="29" y="22.4">ist</tspan></text></g><g id="shape12" transform="translate(1249.7,339.36)"><path stroke="#000000" stroke-opacity="0.08"/><path fill="none" stroke="#6d6d6d" d="M0,20.4L35.3,0L70.6,20.4L35.3,40.9L0,20.4z"/><text class="st3"><tspan x="23.3" y="23.4">bietet</tspan></text></g><g id="shape13" transform="translate(1246.91,753.43)"><path stroke="#000000" stroke-opacity="0.08"/><path fill="none" stroke="#6d6d6d" d="M0,22.3L38.5,0L76.9,22.3L38.5,44.5L0,22.3z"/><text class="st4"><tspan x="14.5" y="24.8">eingeordnet</tspan></text></g><g transform="translate(1195,93.12)"><g id="shape14"><path fill="#000000" fill-opacity="0.08" d="M2,2M78.9,21.4C78.9,32.2,61.7,40.9,40.5,40.9C19.2,40.9,2,32.2,2,21.4C2,10.7,19.2,2,40.5,2C61.7,2,78.9,10.7,78.9,21.4z"/><path fill="url(#lg1)" d="M0,0M76.9,19.4C76.9,30.2,59.7,38.9,38.5,38.9C17.2,38.9,-0,30.2,-0,19.4C-0,8.7,17.2,0,38.5,0C59.7,0,76.9,8.7,76.9,19.4z"/></g><g id="shape15"><path stroke-dasharray="6,4" stroke="#000000" stroke-opacity="0.08"/><path stroke-dasharray="6,4" fill="none" stroke="#6d6d6d" d="M0,19.4C0,8.7,17.2,0,38.5,0C59.7,0,76.9,8.7,76.9,19.4C76.9,30.2,59.7,38.9,38.5,38.9C17.2,38.9,0,30.2,0,19.4z"/></g><text class="st5"><tspan x="9.5" y="21.9">FS:kunden_ID</tspan></text></g><g transform="translate(841.81,753.43)"><g id="shape16"><path fill="#000000" fill-opacity="0.08" d="M2,2M86.2,21.4C86.2,32.2,67.3,40.9,44.1,40.9C20.8,40.9,2,32.2,2,21.4C2,10.7,20.8,2,44.1,2C67.3,2,86.2,10.7,86.2,21.4z"/><path fill="url(#lg1)" d="M0,0M84.2,19.4C84.2,30.2,65.3,38.9,42.1,38.9C18.8,38.9,-0,30.2,-0,19.4C-0,8.7,18.8,0,42.1,0C65.3,0,84.2,8.7,84.2,19.4z"/></g><g id="shape17"><path stroke-dasharray="6,4" stroke="#000000" stroke-opacity="0.08"/><path stroke-dasharray="6,4" fill="none" stroke="#6d6d6d" d="M0,19.4C0,8.7,18.8,0,42.1,0C65.3,0,84.2,8.7,84.2,19.4C84.2,30.2,65.3,38.9,42.1,38.9C18.8,38.9,0,30.2,0,19.4z"/></g><text class="st6"><tspan x="7.1" y="22.9">FS:kunden_ID</tspan></text></g><g id="shape18" transform="translate(785.36,613.39)"><text class="st7"><tspan x="2.9" y="8.7">1</tspan></text></g><path fill="none" stroke="#385d8a" id="shape19" transform="matrix(-0.76,0.65,-0.65,-0.76,1024.5,169.8)" d="M0,0L277.5,0"/><path fill="none" stroke="#385d8a" id="shape20" transform="matrix(1,-0,0,1,1091.5,169.8)" d="M0,0L160.5,0"/><g id="shape21" transform="translate(537.28,336.52)"><text class="st7"><tspan x="2.9" y="12.5">1</tspan></text></g><g id="shape22" transform="translate(1089.86,155.94)"><text class="st7"><tspan x="2.7" y="8.7">N</tspan></text></g><path fill="none" stroke="#385d8a" id="shape23" transform="matrix(0,1,-1,0,1285,380.2)" d="M0,0L186.8,0"/><g id="shape24" transform="translate(1287.29,321.48)"><text class="st7"><tspan x="2.9" y="8.7">1</tspan></text></g><g id="shape25" transform="translate(1286.14,386.1)"><text class="st7"><tspan x="2.7" y="8.7">N</tspan></text></g><path fill="none" stroke="#385d8a" id="shape26" transform="matrix(0,-1,1,0,1285.4,753.4)" d="M0,0L149.3,0"/><path fill="none" stroke="#385d8a" id="shape27" transform="matrix(-0,1,-1,-0,1285.4,798)" d="M0,0L108.1,0"/><g transform="translate(1361,756.26)"><g id="shape28"><path fill="#000000" fill-opacity="0.08" d="M2,2M96,21.4C96,32.2,75,40.9,49,40.9C23,40.9,2,32.2,2,21.4C2,10.7,23,2,49,2C75,2,96,10.7,96,21.4z"/><path fill="url(#lg2)" d="M0,0M94,19.4C94,30.2,73,38.9,47,38.9C21,38.9,0,30.2,0,19.4C0,8.7,21,0,47,0C73,0,94,8.7,94,19.4z"/></g><g id="shape29"><path stroke-dasharray="6,4" stroke="#000000" stroke-opacity="0.08"/><path stroke-dasharray="6,4" fill="none" stroke="#6d6d6d" d="M0,19.4C0,8.7,21,0,47,0C73,0,94,8.7,94,19.4C94,30.2,73,38.9,47,38.9C21,38.9,0,30.2,0,19.4z"/></g><text class="st7"><tspan x="11" y="22.4">FS:kategorie_ID</tspan></text></g><g transform="translate(1141.54,756.26)"><g id="shape30"><path fill="#000000" fill-opacity="0.08" d="M2,2M67.2,21.4C67.2,32.2,52.6,40.9,34.6,40.9C16.6,40.9,2,32.2,2,21.4C2,10.7,16.6,2,34.6,2C52.6,2,67.2,10.7,67.2,21.4z"/><path fill="url(#lg3)" d="M0,0M65.2,19.4C65.2,30.2,50.6,38.9,32.6,38.9C14.6,38.9,-0,30.2,-0,19.4C-0,8.7,14.6,0,32.6,0C50.6,0,65.2,8.7,65.2,19.4z"/></g><g id="shape31"><path stroke-dasharray="6,4" stroke="#000000" stroke-opacity="0.08"/><path stroke-dasharray="6,4" fill="none" stroke="#6d6d6d" d="M0,19.4C0,8.7,14.6,0,32.6,0C50.6,0,65.2,8.7,65.2,19.4C65.2,30.2,50.6,38.9,32.6,38.9C14.6,38.9,0,30.2,0,19.4z"/></g><text class="st7"><tspan x="9.1" y="22.4">FS:bild_ID</tspan></text></g><path fill="none" stroke="#385d8a" id="shape32" transform="matrix(1,0,-0,1,1323.8,775.7)" d="M0,0L37.1,0"/><g id="shape33" transform="translate(472.5,340.26)"><path stroke="#000000" stroke-opacity="0.08"/><path fill="none" stroke="#6d6d6d" d="M0,18.9L32.6,0L65.2,18.9L32.6,37.7L0,18.9z"/><text class="st3"><tspan x="15.1" y="21.9">schreibt</tspan></text></g><path fill="none" stroke="#385d8a" id="shape34" transform="matrix(-1,-0,0,-1,472.5,359.1)" d="M0,0L180.8,0"/><g id="shape35" transform="translate(785.36,552.21)"><text class="st7"><tspan x="2.9" y="8.7">1</tspan></text></g><g id="shape36" transform="translate(458.83,340.26)"><text class="st7"><tspan x="2.7" y="8.7">N</tspan></text></g><g transform="translate(142.31,392.87)"><g id="shape37"><path fill="#000000" fill-opacity="0.08" d="M2,2M67.2,21.4C67.2,32.2,52.6,40.9,34.6,40.9C16.6,40.9,2,32.2,2,21.4C2,10.7,16.6,2,34.6,2C52.6,2,67.2,10.7,67.2,21.4z"/><path fill="url(#lg1)" d="M0,0M65.2,19.4C65.2,30.2,50.6,38.9,32.6,38.9C14.6,38.9,-0,30.2,-0,19.4C-0,8.7,14.6,0,32.6,0C50.6,0,65.2,8.7,65.2,19.4z"/></g><g id="shape38"><path stroke-dasharray="6,4" stroke="#000000" stroke-opacity="0.08"/><path stroke-dasharray="6,4" fill="none" stroke="#6d6d6d" d="M0,19.4C0,8.7,14.6,0,32.6,0C50.6,0,65.2,8.7,65.2,19.4C65.2,30.2,50.6,38.9,32.6,38.9C14.6,38.9,0,30.2,0,19.4z"/></g><text class="st7"><tspan x="9.1" y="22.4">FS:von_ID</tspan></text></g><g transform="translate(142.31,285.37)"><g id="shape39"><path fill="#000000" fill-opacity="0.08" d="M2,2M67.2,21.4C67.2,32.2,52.6,40.9,34.6,40.9C16.6,40.9,2,32.2,2,21.4C2,10.7,16.6,2,34.6,2C52.6,2,67.2,10.7,67.2,21.4z"/><path fill="url(#lg1)" d="M0,0M65.2,19.4C65.2,30.2,50.6,38.9,32.6,38.9C14.6,38.9,-0,30.2,-0,19.4C-0,8.7,14.6,0,32.6,0C50.6,0,65.2,8.7,65.2,19.4z"/></g><g id="shape40"><path stroke-dasharray="6,4" stroke="#000000" stroke-opacity="0.08"/><path stroke-dasharray="6,4" fill="none" stroke="#6d6d6d" d="M0,19.4C0,8.7,14.6,0,32.6,0C50.6,0,65.2,8.7,65.2,19.4C65.2,30.2,50.6,38.9,32.6,38.9C14.6,38.9,0,30.2,0,19.4z"/></g><text class="st7"><tspan x="11.1" y="22.4">FS:an_ID</tspan></text></g><g transform="translate(1361,524.76)"><g id="shape41"><path fill="#000000" fill-opacity="0.08" d="M2,2M91,21.4C91,32.2,71.1,40.9,46.5,40.9C21.9,40.9,2,32.2,2,21.4C2,10.7,21.9,2,46.5,2C71.1,2,91,10.7,91,21.4z"/><path fill="url(#lg4)" d="M0,0M89,19.4C89,30.2,69.1,38.9,44.5,38.9C19.9,38.9,0,30.2,0,19.4C0,8.7,19.9,0,44.5,0C69.1,0,89,8.7,89,19.4z"/></g><g id="shape42"><path stroke-dasharray="6,4" stroke="#000000" stroke-opacity="0.08"/><path stroke-dasharray="6,4" fill="none" stroke="#6d6d6d" d="M0,19.4C0,8.7,19.9,0,44.5,0C69.1,0,89,8.7,89,19.4C89,30.2,69.1,38.9,44.5,38.9C19.9,38.9,0,30.2,0,19.4z"/></g><text class="st7"><tspan x="9" y="22.4">FS:kuenstler_ID</tspan></text></g><g id="shape43" transform="translate(1026.32,566.69)"><path stroke="#000000" stroke-opacity="0.08"/><path fill="none" stroke="#6d6d6d" d="M0,18.9L32.6,0L65.2,18.9L32.6,37.7L0,18.9z"/><text class="st3"><tspan x="22.1" y="21.9">kauft</tspan></text></g><g id="shape44" transform="translate(1091,569.08)"><text class="st7"><tspan x="2.9" y="8.7">1</tspan></text></g><g id="shape45" transform="translate(1024.5,566.69)"><text class="st7"><tspan x="2.9" y="8.7">1</tspan></text></g><g transform="translate(1361,478.73)"><g id="shape46"><path fill="#000000" fill-opacity="0.08" d="M2,2M91,21.4C91,32.2,71.1,40.9,46.5,40.9C21.9,40.9,2,32.2,2,21.4C2,10.7,21.9,2,46.5,2C71.1,2,91,10.7,91,21.4z"/><path fill="url(#lg1)" d="M0,0M89,19.4C89,30.2,69.1,38.9,44.5,38.9C19.9,38.9,0,30.2,0,19.4C0,8.7,19.9,0,44.5,0C69.1,0,89,8.7,89,19.4z"/></g><g id="shape47"><path stroke-dasharray="6,4" stroke="#000000" stroke-opacity="0.08"/><path stroke-dasharray="6,4" fill="none" stroke="#6d6d6d" d="M0,19.4C0,8.7,19.9,0,44.5,0C69.1,0,89,8.7,89,19.4C89,30.2,69.1,38.9,44.5,38.9C19.9,38.9,0,30.2,0,19.4z"/></g><text class="st7"><tspan x="13" y="22.4">FS:kunden_ID</tspan></text></g><g id="shape48" transform="translate(1285,737.83)"><text class="st7"><tspan x="2.7" y="8.7">N</tspan></text></g><g id="shape49" transform="translate(1285,802.14)"><text class="st7"><tspan x="2.7" y="8.4">M</tspan></text></g><g transform="translate(1361,142.22)"><g id="shape50"><path stroke="#000000" stroke-opacity="0.08"/><path fill="none" stroke="#6d6d6d" d="M0,0M65.2,19.4C65.2,30.2,50.6,38.9,32.6,38.9C14.6,38.9,-0,30.2,-0,19.4C-0,8.7,14.6,0,32.6,0C50.6,0,65.2,8.7,65.2,19.4z"/></g><path/><text class="st3"><tspan x="19.1" y="22.4">avatar</tspan></text></g><g transform="translate(1295.81,225.13)"><g id="shape51"><path stroke="#000000" stroke-opacity="0.08"/><path fill="none" stroke="#6d6d6d" d="M0,0M65.2,19.4C65.2,30.2,50.6,38.9,32.6,38.9C14.6,38.9,-0,30.2,-0,19.4C-0,8.7,14.6,0,32.6,0C50.6,0,65.2,8.7,65.2,19.4z"/></g><path/><text class="st4"><tspan x="9.1" y="21.9">pseudonym</tspan></text></g><g transform="translate(1206.73,225.13)"><g id="shape52"><path stroke="#000000" stroke-opacity="0.08"/><path fill="none" stroke="#6d6d6d" d="M0,0M65.2,19.4C65.2,30.2,50.6,38.9,32.6,38.9C14.6,38.9,-0,30.2,-0,19.4C-0,8.7,14.6,0,32.6,0C50.6,0,65.2,8.7,65.2,19.4z"/></g><path/><text class="st3"><tspan x="23.1" y="22.4">iban</tspan></text></g><g transform="translate(747.41,831)"><g id="shape53"><path stroke="#000000" stroke-opacity="0.08"/><path fill="none" stroke="#6d6d6d" d="M0,0M65.2,19.4C65.2,30.2,50.6,38.9,32.6,38.9C14.6,38.9,-0,30.2,-0,19.4C-0,8.7,14.6,0,32.6,0C50.6,0,65.2,8.7,65.2,19.4z"/></g><path/><text class="st3"><tspan x="22.1" y="22.4">login</tspan></text></g><g transform="translate(1141.54,192.54)"><g id="shape54"><path stroke="#000000" stroke-opacity="0.08"/><path fill="none" stroke="#6d6d6d" d="M0,0M65.2,19.4C65.2,30.2,50.6,38.9,32.6,38.9C14.6,38.9,-0,30.2,-0,19.4C-0,8.7,14.6,0,32.6,0C50.6,0,65.2,8.7,65.2,19.4z"/></g><path/><text class="st3"><tspan x="26.1" y="22.4">bic</tspan></text></g><g transform="translate(704.41,194.83)"><g id="shape55"><path stroke="#000000" stroke-opacity="0.08"/><path fill="none" stroke="#6d6d6d" d="M0,0M65.2,19.4C65.2,30.2,50.6,38.9,32.6,38.9C14.6,38.9,-0,30.2,-0,19.4C-0,8.7,14.6,0,32.6,0C50.6,0,65.2,8.7,65.2,19.4z"/></g><path/><text class="st3"><tspan x="19.1" y="22.4">reg_ip</tspan></text></g><g transform="translate(803.81,253.15)"><g id="shape56"><path stroke="#000000" stroke-opacity="0.08"/><path fill="none" stroke="#6d6d6d" d="M0,0M65.2,19.4C65.2,30.2,50.6,38.9,32.6,38.9C14.6,38.9,-0,30.2,-0,19.4C-0,8.7,14.6,0,32.6,0C50.6,0,65.2,8.7,65.2,19.4z"/></g><path/><text class="st3"><tspan x="19.1" y="22.4">status</tspan></text></g><g transform="translate(785.36,194.83)"><g id="shape57"><path stroke="#000000" stroke-opacity="0.08"/><path fill="none" stroke="#6d6d6d" d="M0,0M65.2,19.4C65.2,30.2,50.6,38.9,32.6,38.9C14.6,38.9,-0,30.2,-0,19.4C-0,8.7,14.6,0,32.6,0C50.6,0,65.2,8.7,65.2,19.4z"/></g><path/><text class="st3"><tspan x="9.1" y="22.4">reg_datum</tspan></text></g><g transform="translate(1361,192.54)"><g id="shape58"><path stroke="#000000" stroke-opacity="0.08"/><path fill="none" stroke="#6d6d6d" d="M0,0M65.2,19.4C65.2,30.2,50.6,38.9,32.6,38.9C14.6,38.9,-0,30.2,-0,19.4C-0,8.7,14.6,0,32.6,0C50.6,0,65.2,8.7,65.2,19.4z"/></g><path/><text class="st3"><tspan x="17.1" y="22.4">portrait</tspan></text></g><g transform="translate(803.81,417.26)"><g id="shape59"><path stroke="#000000" stroke-opacity="0.08"/><path fill="none" stroke="#6d6d6d" d="M0,0M65.2,19.4C65.2,30.2,50.6,38.9,32.6,38.9C14.6,38.9,-0,30.2,-0,19.4C-0,8.7,14.6,0,32.6,0C50.6,0,65.2,8.7,65.2,19.4z"/></g><path/><text class="st3"><tspan x="17.1" y="22.4">anrede</tspan></text></g><g transform="translate(638.55,206.26)"><g id="shape60"><path stroke="#000000" stroke-opacity="0.08"/><path fill="none" stroke="#6d6d6d" d="M0,0M65.2,19.4C65.2,30.2,50.6,38.9,32.6,38.9C14.6,38.9,-0,30.2,-0,19.4C-0,8.7,14.6,0,32.6,0C50.6,0,65.2,8.7,65.2,19.4z"/></g><path/><text class="st3"><tspan x="18.1" y="22.4">telefon</tspan></text></g><g transform="translate(638.55,253.15)"><g id="shape61"><path stroke="#000000" stroke-opacity="0.08"/><path fill="none" stroke="#6d6d6d" d="M0,0M65.2,19.4C65.2,30.2,50.6,38.9,32.6,38.9C14.6,38.9,-0,30.2,-0,19.4C-0,8.7,14.6,0,32.6,0C50.6,0,65.2,8.7,65.2,19.4z"/></g><path/><text class="st3"><tspan x="21.1" y="22.4">email</tspan></text></g><g transform="translate(638.55,465.01)"><g id="shape62"><path stroke="#000000" stroke-opacity="0.08"/><path fill="none" stroke="#6d6d6d" d="M0,0M65.2,19.4C65.2,30.2,50.6,38.9,32.6,38.9C14.6,38.9,-0,30.2,-0,19.4C-0,8.7,14.6,0,32.6,0C50.6,0,65.2,8.7,65.2,19.4z"/></g><path/><text class="st3"><tspan x="15.1" y="22.4">adresse</tspan></text></g><g transform="translate(638.55,307.76)"><g id="shape63"><path stroke="#000000" stroke-opacity="0.08"/><path fill="none" stroke="#6d6d6d" d="M0,0M65.2,19.4C65.2,30.2,50.6,38.9,32.6,38.9C14.6,38.9,-0,30.2,-0,19.4C-0,8.7,14.6,0,32.6,0C50.6,0,65.2,8.7,65.2,19.4z"/></g><path/><text class="st3"><tspan x="9.1" y="22.4">geburtstag</tspan></text></g><g transform="translate(638.55,366.66)"><g id="shape64"><path stroke="#000000" stroke-opacity="0.08"/><path fill="none" stroke="#6d6d6d" d="M0,0M65.2,19.4C65.2,30.2,50.6,38.9,32.6,38.9C14.6,38.9,-0,30.2,-0,19.4C-0,8.7,14.6,0,32.6,0C50.6,0,65.2,8.7,65.2,19.4z"/></g><path/><text class="st3"><tspan x="27.1" y="22.4">ort</tspan></text></g><g transform="translate(794,487.54)"><g id="shape65"><path stroke="#000000" stroke-opacity="0.08"/><path fill="none" stroke="#6d6d6d" d="M0,0M65.2,19.4C65.2,30.2,50.6,38.9,32.6,38.9C14.6,38.9,-0,30.2,-0,19.4C-0,8.7,14.6,0,32.6,0C50.6,0,65.2,8.7,65.2,19.4z"/></g><path/><text class="st3"><tspan x="13.1" y="22.4">vorname</tspan></text></g><g transform="translate(879.81,378)"><g id="shape66"><path stroke="#000000" stroke-opacity="0.08"/><path fill="none" stroke="#6d6d6d" d="M0,0M65.2,19.4C65.2,30.2,50.6,38.9,32.6,38.9C14.6,38.9,-0,30.2,-0,19.4C-0,8.7,14.6,0,32.6,0C50.6,0,65.2,8.7,65.2,19.4z"/></g><path/><text class="st3"><tspan x="25.1" y="22.4">titel</tspan></text></g><g transform="translate(638.55,417.26)"><g id="shape67"><path stroke="#000000" stroke-opacity="0.08"/><path fill="none" stroke="#6d6d6d" d="M0,0M65.2,19.4C65.2,30.2,50.6,38.9,32.6,38.9C14.6,38.9,-0,30.2,-0,19.4C-0,8.7,14.6,0,32.6,0C50.6,0,65.2,8.7,65.2,19.4z"/></g><path/><text class="st3"><tspan x="26.1" y="22.4">plz</tspan></text></g><g transform="translate(704.41,487.54)"><g id="shape68"><path stroke="#000000" stroke-opacity="0.08"/><path fill="none" stroke="#6d6d6d" d="M0,0M65.2,19.4C65.2,30.2,50.6,38.9,32.6,38.9C14.6,38.9,-0,30.2,-0,19.4C-0,8.7,14.6,0,32.6,0C50.6,0,65.2,8.7,65.2,19.4z"/></g><path/><text class="st3"><tspan x="9.1" y="22.4">nachname</tspan></text></g><g transform="translate(1361,906.12)"><g id="shape69"><path stroke="#000000" stroke-opacity="0.08"/><path fill="none" stroke="#6d6d6d" d="M0,0M65.2,19.4C65.2,30.2,50.6,38.9,32.6,38.9C14.6,38.9,-0,30.2,-0,19.4C-0,8.7,14.6,0,32.6,0C50.6,0,65.2,8.7,65.2,19.4z"/></g><path/><text class="st8"><tspan x="9.1" y="21.4">beschreibung</tspan></text></g><g transform="translate(638.55,753.43)"><g id="shape70"><path stroke="#000000" stroke-opacity="0.08"/><path fill="none" stroke="#6d6d6d" d="M0,0M65.2,18.9C65.2,29.3,50.6,37.7,32.6,37.7C14.6,37.7,-0,29.3,-0,18.9C-0,8.4,14.6,0,32.6,0C50.6,0,65.2,8.4,65.2,18.9z"/></g><path/><text class="st3"><tspan x="11.1" y="21.9">password</tspan></text></g><g transform="translate(1141.54,613.39)"><g id="shape71"><path stroke="#000000" stroke-opacity="0.08"/><path fill="none" stroke="#6d6d6d" d="M0,0M65.2,19.4C65.2,30.2,50.6,38.9,32.6,38.9C14.6,38.9,-0,30.2,-0,19.4C-0,8.7,14.6,0,32.6,0C50.6,0,65.2,8.7,65.2,19.4z"/></g><path/><text class="st3"><tspan x="9.1" y="22.4">bild_breite</tspan></text></g><g transform="translate(1141.54,657.71)"><g id="shape72"><path stroke="#000000" stroke-opacity="0.08"/><path fill="none" stroke="#6d6d6d" d="M0,0M65.2,19.4C65.2,30.2,50.6,38.9,32.6,38.9C14.6,38.9,-0,30.2,-0,19.4C-0,8.7,14.6,0,32.6,0C50.6,0,65.2,8.7,65.2,19.4z"/></g><path/><text class="st3"><tspan x="8.1" y="22.4">bild_hoehe</tspan></text></g><g transform="translate(1361,613.39)"><g id="shape73"><path stroke="#000000" stroke-opacity="0.08"/><path fill="none" stroke="#6d6d6d" d="M0,0M65.2,19.4C65.2,30.2,50.6,38.9,32.6,38.9C14.6,38.9,-0,30.2,-0,19.4C-0,8.7,14.6,0,32.6,0C50.6,0,65.2,8.7,65.2,19.4z"/></g><path/><text class="st3"><tspan x="25.1" y="22.4">titel</tspan></text></g><g transform="translate(1295.81,670.12)"><g id="shape74"><path stroke="#000000" stroke-opacity="0.08"/><path fill="none" stroke="#6d6d6d" d="M0,0M65.2,19.4C65.2,30.2,50.6,38.9,32.6,38.9C14.6,38.9,-0,30.2,-0,19.4C-0,8.7,14.6,0,32.6,0C50.6,0,65.2,8.7,65.2,19.4z"/></g><path/><text class="st3"><tspan x="25.1" y="22.4">bild</tspan></text></g><g transform="translate(1361,657.71)"><g id="shape75"><path stroke="#000000" stroke-opacity="0.08"/><path fill="none" stroke="#6d6d6d" d="M0,0M65.2,19.4C65.2,30.2,50.6,38.9,32.6,38.9C14.6,38.9,-0,30.2,-0,19.4C-0,8.7,14.6,0,32.6,0C50.6,0,65.2,8.7,65.2,19.4z"/></g><path/><text class="st8"><tspan x="9.1" y="21.4">beschreibung</tspan></text></g><g transform="translate(1295.81,433.12)"><g id="shape76"><path stroke="#000000" stroke-opacity="0.08"/><path fill="none" stroke="#6d6d6d" d="M0,0M65.2,19.4C65.2,30.2,50.6,38.9,32.6,38.9C14.6,38.9,-0,30.2,-0,19.4C-0,8.7,14.6,0,32.6,0C50.6,0,65.2,8.7,65.2,19.4z"/></g><path/><text class="st9"><tspan x="10.1" y="21.9">upload_datum</tspan></text></g><g transform="translate(1208.12,433.12)"><g id="shape77"><path stroke="#000000" stroke-opacity="0.08"/><path fill="none" stroke="#6d6d6d" d="M0,0M65.2,19.4C65.2,30.2,50.6,38.9,32.6,38.9C14.6,38.9,-0,30.2,-0,19.4C-0,8.7,14.6,0,32.6,0C50.6,0,65.2,8.7,65.2,19.4z"/></g><path/><text class="st3"><tspan x="11.1" y="22.4">upload_ip</tspan></text></g><g transform="translate(1139.17,433.12)"><g id="shape78"><path stroke="#000000" stroke-opacity="0.08"/><path fill="none" stroke="#6d6d6d" d="M0,0M65.2,19.4C65.2,30.2,50.6,38.9,32.6,38.9C14.6,38.9,-0,30.2,-0,19.4C-0,8.7,14.6,0,32.6,0C50.6,0,65.2,8.7,65.2,19.4z"/></g><path/><text class="st3"><tspan x="16.1" y="22.4">kauf_ip</tspan></text></g><g transform="translate(1248.37,979.92)"><g id="shape79"><path stroke="#000000" stroke-opacity="0.08"/><path fill="none" stroke="#6d6d6d" d="M0,0M74,22.1C74,34.3,57.5,44.2,37,44.2C16.6,44.2,0,34.3,0,22.1C0,9.9,16.6,-0,37,-0C57.5,-0,74,9.9,74,22.1z"/></g><path/><text class="st3"><tspan x="11" y="25.1">bezeichung</tspan></text></g><g transform="translate(226.5,392.87)"><g id="shape80"><path stroke="#000000" stroke-opacity="0.08"/><path fill="none" stroke="#6d6d6d" d="M0,0M65.2,19.4C65.2,30.2,50.6,38.9,32.6,38.9C14.6,38.9,-0,30.2,-0,19.4C-0,8.7,14.6,0,32.6,0C50.6,0,65.2,8.7,65.2,19.4z"/></g><path/><text class="st3"><tspan x="19.1" y="22.4">delete</tspan></text></g><g transform="translate(226.5,285.37)"><g id="shape81"><path stroke="#000000" stroke-opacity="0.08"/><path fill="none" stroke="#6d6d6d" d="M0,0M65.2,19.4C65.2,30.2,50.6,38.9,32.6,38.9C14.6,38.9,-0,30.2,-0,19.4C-0,8.7,14.6,0,32.6,0C50.6,0,65.2,8.7,65.2,19.4z"/></g><path/><text class="st3"><tspan x="15.1" y="22.4">gelesen</tspan></text></g><g transform="translate(310.69,392.87)"><g id="shape82"><path stroke="#000000" stroke-opacity="0.08"/><path fill="none" stroke="#6d6d6d" d="M0,0M65.2,19.4C65.2,30.2,50.6,38.9,32.6,38.9C14.6,38.9,-0,30.2,-0,19.4C-0,8.7,14.6,0,32.6,0C50.6,0,65.2,8.7,65.2,19.4z"/></g><path/><text class="st3"><tspan x="24.1" y="22.4">text</tspan></text></g><g id="shape83" transform="translate(1014.28,155.95)"><text class="st7"><tspan x="2.9" y="10">1</tspan></text></g><g transform="translate(1206.73,670.12)"><g id="shape84"><path stroke="#000000" stroke-opacity="0.08"/><path fill="none" stroke="#6d6d6d" d="M0,0M65.2,19.4C65.2,30.2,50.6,38.9,32.6,38.9C14.6,38.9,-0,30.2,-0,19.4C-0,8.7,14.6,0,32.6,0C50.6,0,65.2,8.7,65.2,19.4z"/></g><path/><text class="st9"><tspan x="11.1" y="21.9">bild_vorschau</tspan></text></g><path fill="none" stroke="#000000" id="shape85" transform="matrix(0.52,-0.85,0.85,0.52,1300.9,567)" d="M0,0L134.1,0"/><path fill="none" stroke="#000000" id="shape86" transform="matrix(-0.93,0.36,-0.36,-0.93,1254.3,594.8)" d="M0,0L63.7,0"/><path fill="none" stroke="#000000" id="shape87" transform="matrix(-0.66,0.75,-0.75,-0.66,1254.3,594.8)" d="M0,0L89.9,0"/><path fill="none" stroke="#000000" id="shape88" transform="matrix(-0.14,0.99,-0.99,-0.14,1269.9,604.1)" d="M0,0L71.4,0"/><path fill="none" stroke="#000000" id="shape89" transform="matrix(0.09,1,-1,0.09,1300.9,604.1)" d="M0,0L71,0"/><path fill="none" stroke="#000000" id="shape90" transform="matrix(0.78,0.63,-0.63,0.78,1300.9,604.1)" d="M0,0L92.5,0"/><path fill="none" stroke="#000000" id="shape91" transform="matrix(0.9,0.43,-0.43,0.9,1300.9,604.1)" d="M0,0L66.6,0"/><path fill="none" stroke="#000000" id="shape92" transform="matrix(0.99,-0.14,0.14,0.99,1316.5,594.8)" d="M0,0L45,0"/><path fill="none" stroke="#000000" id="shape93" transform="matrix(0.81,-0.58,0.58,0.81,1316.5,576.3)" d="M0,0L54.9,0"/><path fill="none" stroke="#000000" id="shape94" transform="matrix(-0.96,-0.26,0.26,-0.96,1254.3,576.3)" d="M0,0L65.5,0"/><path fill="none" stroke="#000000" id="shape95" transform="matrix(-0.81,-0.59,0.59,-0.81,1269.9,567)" d="M0,0L92.4,0"/><path fill="none" stroke="#000000" id="shape96" transform="matrix(0.66,-0.75,0.75,0.66,1300.9,567)" d="M0,0L91.4,0"/><path fill="none" stroke="#000000" id="shape97" transform="matrix(0.07,-1,1,0.07,1300.9,567)" d="M0,0L99.9,0"/><path fill="none" stroke="#000000" id="shape98" transform="matrix(-0.08,-1,1,-0.08,1269.9,567)" d="M0,0L100,0"/><path fill="none" stroke="#385d8a" id="shape99" transform="matrix(-1,-0,0,-1,1246.9,775.7)" d="M0,0L40.2,0"/><g id="shape100" transform="translate(1253.93,906.12)"><path fill="#969696" stroke="#969696" d="M0,0L0,37.1L62.1,37.1L62.1,0L0,0z"/><text class="st1"><tspan x="10.1" y="21.5">kategorie</tspan></text></g><path fill="none" stroke="#385d8a" id="shape101" transform="matrix(-1,0.02,-0.02,-1,1253.9,924.6)" d="M0,0L47.2,0"/><path fill="none" stroke="#385d8a" id="shape102" transform="matrix(1,0.02,-0.02,1,1316.1,924.6)" d="M0,0L44.9,0"/><path fill="none" stroke="#385d8a" id="shape103" transform="matrix(0.01,1,-1,0.01,1285,943.2)" d="M0,0L36.7,0"/><path fill="none" stroke="#385d8a" id="shape104" transform="matrix(0,-1,1,0,1285,339.4)" d="M0,0L150.4,0"/><path fill="none" stroke="#000000" id="shape105" transform="matrix(0.39,-0.92,0.92,0.39,1301.5,149.7)" d="M0,0L24.2,0"/><path fill="none" stroke="#000000" id="shape106" transform="matrix(-0.42,-0.91,0.91,-0.42,1268.5,149.7)" d="M0,0L24.6,0"/><path fill="none" stroke="#000000" id="shape107" transform="matrix(1,0.05,-0.05,1,1318,159.5)" d="M0,0L43.1,0"/><path fill="none" stroke="#000000" id="shape108" transform="matrix(0.89,0.45,-0.45,0.89,1318,169.3)" d="M0,0L61.4,0"/><path fill="none" stroke="#000000" id="shape109" transform="matrix(0.6,0.8,-0.8,0.6,1301.5,189)" d="M0,0L45.1,0"/><path fill="none" stroke="#000000" id="shape110" transform="matrix(-0.2,0.98,-0.98,-0.2,1268.5,189)" d="M0,0L41.6,0"/><path fill="none" stroke="#000000" id="shape111" transform="matrix(-0.81,0.59,-0.59,-0.81,1252,179.2)" d="M0,0L55.9,0"/><path fill="none" stroke="#000000" id="shape112" transform="matrix(-0.61,-0.79,0.79,-0.61,1269.9,567)" d="M0,0L126.1,0"/><g transform="translate(1120,524.76)"><g id="shape113"><path stroke="#000000" stroke-opacity="0.08"/><path fill="none" stroke="#6d6d6d" d="M0,0M86.7,19.4C86.7,30.2,67.3,38.9,43.4,38.9C19.4,38.9,0,30.2,0,19.4C0,8.7,19.4,0,43.4,0C67.3,0,86.7,8.7,86.7,19.4z"/></g><path/><text class="st4"><tspan x="9.4" y="21.9">erscheinungsjahr</tspan></text></g><g transform="translate(1141.54,478.73)"><g id="shape114"><path stroke="#000000" stroke-opacity="0.08"/><path fill="none" stroke="#6d6d6d" d="M0,0M65.2,19.4C65.2,30.2,50.6,38.9,32.6,38.9C14.6,38.9,-0,30.2,-0,19.4C-0,8.7,14.6,0,32.6,0C50.6,0,65.2,8.7,65.2,19.4z"/></g><path/><text class="st4"><tspan x="9.1" y="21.9">kauf_datum</tspan></text></g><g transform="translate(1370.82,433.12)"><g id="shape115"><path stroke="#000000" stroke-opacity="0.08"/><path fill="none" stroke="#6d6d6d" d="M0,0M65.2,19.4C65.2,30.2,50.6,38.9,32.6,38.9C14.6,38.9,-0,30.2,-0,19.4C-0,8.7,14.6,0,32.6,0C50.6,0,65.2,8.7,65.2,19.4z"/></g><path/><text class="st3"><tspan x="22.1" y="22.4">preis</tspan></text></g><path fill="none" stroke="#385d8a" id="shape116" transform="translate(1091.5,585.56)" d="M0,0L162.8,0"/><path fill="none" stroke="#385d8a" id="shape117" transform="matrix(-0.7,-0.71,0.71,-0.7,1026.3,585.6)" d="M0,0L304.7,0"/><path fill="none" stroke="#000000" id="shape118" transform="matrix(0.71,0.7,-0.7,0.71,796.4,378)" d="M0,0L56.1,0"/><g id="shape119" transform="translate(747.41,569.08)"><path stroke="#000000" stroke-opacity="0.08"/><path fill="none" stroke="#6d6d6d" d="M0,18.9L32.6,0L65.2,18.9L32.6,37.7L0,18.9z"/><text class="st3"><tspan x="25.1" y="21.9">is a</tspan></text></g><path fill="none" stroke="#385d8a" id="shape120" transform="matrix(0,-1,1,0,780,569.1)" d="M0,0L191.1,0"/><path fill="none" stroke="#385d8a" id="shape121" transform="matrix(1,-0,0,1,537.7,359.1)" d="M0,0L210.1,0"/><path fill="none" stroke="#000000" id="shape122" transform="matrix(0.92,0.4,-0.4,0.92,812.6,368.3)" d="M0,0L73.3,0"/><path fill="none" stroke="#000000" id="shape123" transform="matrix(0.08,1,-1,0.08,796.4,378)" d="M0,0L114.6,0"/><path fill="none" stroke="#000000" id="shape124" transform="matrix(-0.05,1,-1,-0.05,764,378)" d="M0,0L114.4,0"/><path fill="none" stroke="#000000" id="shape125" transform="matrix(-0.49,0.87,-0.87,-0.49,764,378)" d="M0,0L122.3,0"/><path fill="none" stroke="#000000" id="shape126" transform="matrix(-0.54,0.84,-0.84,-0.54,747.8,368.3)" d="M0,0L81.3,0"/><path fill="none" stroke="#000000" id="shape127" transform="matrix(-0.72,0.69,-0.69,-0.72,226.5,368.3)" d="M0,0L42.4,0"/><path fill="none" stroke="#000000" id="shape128" transform="matrix(-0.9,-0.44,0.44,-0.9,747.8,349)" d="M0,0L49.2,0"/><path fill="none" stroke="#000000" id="shape129" transform="matrix(-0.81,-0.59,0.59,-0.81,764,339.4)" d="M0,0L88.8,0"/><path fill="none" stroke="#000000" id="shape130" transform="matrix(-0.59,-0.81,0.81,-0.59,764,339.4)" d="M0,0L122.3,0"/><path fill="none" stroke="#000000" id="shape131" transform="matrix(-0.38,-0.93,0.93,-0.38,780.2,339.4)" d="M0,0L114.1,0"/><path fill="none" stroke="#000000" id="shape132" transform="matrix(0.15,-0.99,0.99,0.15,780.2,339.4)" d="M0,0L111.6,0"/><path fill="none" stroke="#000000" id="shape133" transform="matrix(0.35,-0.94,0.94,0.35,796.4,339.4)" d="M0,0L55.4,0"/><path fill="none" stroke="#000000" id="shape134" transform="matrix(1,-0,0,1,812.6,358.7)" d="M0,0L29.2,0"/><path fill="none" stroke="#385d8a" id="shape135" transform="matrix(0,1,-1,0,780,606.8)" d="M0,0L146.6,0"/><path fill="none" stroke="#000000" id="shape136" transform="matrix(0,1,-1,0,780,792.3)" d="M0,0L38.7,0"/><path fill="none" stroke="#000000" id="shape137" transform="matrix(1,0,-0,1,812.6,772.9)" d="M0,0L29.2,0"/><path fill="none" stroke="#000000" id="shape138" transform="matrix(-1,-0.01,0.01,-1,747.4,772.9)" d="M0,0L43.7,0"/><path fill="none" stroke="#000000" id="shape139" transform="matrix(-0.93,0.37,-0.37,-0.93,747.8,368.3)" d="M0,0L47.5,0"/><path fill="none" stroke="#000000" id="shape140" transform="matrix(-1,0,0,-1,226.5,358.6)" d="M0,0L19,0"/><path fill="none" stroke="#000000" id="shape141" transform="matrix(-0.72,-0.69,0.69,-0.72,226.5,348.8)" d="M0,0L42.4,0"/><path fill="none" stroke="#000000" id="shape142" transform="matrix(0,-1,1,0,259.1,339.1)" d="M0,0L14.9,0"/><path fill="none" stroke="#000000" id="shape143" transform="matrix(0,1,-1,0,259.1,378)" d="M0,0L14.9,0"/><path fill="none" stroke="#000000" id="shape144" transform="matrix(0.72,0.69,-0.69,0.72,291.7,368.3)" d="M0,0L42.4,0"/><g id="shape145" transform="translate(80,66)"><text class="st10"><tspan x="24" y="40.5">Kuenstlerwebsite AEDK7</tspan></text></g></g></svg>